<svg width="1293" height="229" viewBox="0 0 1293 229" fill="none" xmlns="http://www.w3.org/2000/svg">
<path d="M291.992 180L246.992 47.34H264.272L302.612 164.34H306.572L344.912 47.34H362.192L317.192 180H291.992ZM379.295 75.6V54.36H395.135V75.6H379.295ZM379.295 180V85.86H395.135V180H379.295ZM441.211 180L422.311 161.1V104.76L441.211 85.86H475.771L490.351 100.8V47.34H506.191V180H490.351V165.24L475.771 180H441.211ZM471.811 167.4L490.351 148.68V117.36L471.811 98.46H448.051L438.151 108.36V157.5L448.051 167.4H471.811ZM552.305 180L533.405 161.1V104.76L552.305 85.86H594.245L613.145 104.76V138.78H549.245V156.96L559.145 166.86H611.525V180H552.305ZM549.245 126.18H597.305V108.36L587.405 98.46H559.145L549.245 108.36V126.18ZM657.246 180L638.346 161.1V104.76L657.246 85.86H701.886L720.786 104.76V161.1L701.886 180H657.246ZM664.086 167.4H695.046L704.946 157.5L704.766 108.36L695.046 98.46H664.086L654.186 108.36V157.5L664.086 167.4ZM748.984 180V47.34H771.304L830.524 154.08V47.34H846.904V180H827.464L769.324 75.24H765.364V180H748.984ZM887.543 180L868.823 161.1V139.68L887.543 120.78H935.423V109.08L925.703 99.18H881.063V85.86H932.543L951.263 104.76V180H935.423V165.42L920.843 180H887.543ZM894.563 167.4H916.883L935.423 149.04V133.2L894.563 133.38L884.663 143.1V157.5L894.563 167.4ZM997.58 180L981.02 163.62V98.46H971.12V85.86H981.38L985.34 61.74H996.86V85.86H1016.84V98.46H996.86V158.04L1005.32 166.86H1020.98V180H997.58ZM1040.23 75.6V54.36H1056.07V75.6H1040.23ZM1040.23 180V85.86H1056.07V180H1040.23ZM1102.15 180L1083.25 161.1V104.76L1102.15 85.86H1146.79L1165.69 104.76V161.1L1146.79 180H1102.15ZM1108.99 167.4H1139.95L1149.85 157.5L1149.67 108.36L1139.95 98.46H1108.99L1099.09 108.36V157.5L1108.99 167.4ZM1192.99 180V85.86H1208.83V102.78L1225.21 85.86H1259.95L1278.67 104.76V180H1262.83V108.72L1253.29 98.46H1229.35L1208.83 119.34V180H1192.99Z" fill="white"/>
<path d="M15.1412 180.749C13.6312 180.659 13.0212 179.529 12.3912 178.399C8.58122 171.519 5.62119 164.269 3.61119 156.689C-10.3488 104.009 17.6712 54.3486 61.7312 35.4086C77.3012 28.7186 93.5812 25.8986 110.411 27.3886C157.331 31.5686 192.501 64.1586 202.081 106.799C213.641 158.279 185.251 208.719 135.861 226.249C134.371 226.779 132.931 227.429 131.471 228.019H131.491C131.791 226.759 132.821 226.339 133.851 225.859C137.171 224.289 140.541 222.819 143.761 221.049C164.151 209.819 177.611 192.759 185.501 171.069C188.911 161.689 190.931 152.009 191.201 142.039C191.561 129.079 188.951 116.609 183.741 104.749C172.171 78.4186 152.991 60.1286 125.341 51.7886C95.0012 42.6386 66.8712 48.0486 41.4712 66.9786C23.5512 80.3386 12.7212 98.3486 7.71116 119.999C5.31116 130.369 4.61117 140.849 5.84117 151.419C6.97117 161.169 9.76121 170.479 13.9512 179.349C14.2112 179.889 14.7512 180.299 15.1612 180.769L15.1412 180.739V180.749Z" fill="white"/>
<path d="M62.0139 127.844C62.0139 115.214 61.9738 102.584 62.0538 89.9436C62.0638 87.4036 62.4539 84.8536 62.7939 82.3336C62.9439 81.2436 63.3039 80.1436 63.7539 79.1436C64.8739 76.6636 66.4339 75.7136 69.0839 76.0736C70.4839 76.2636 71.9039 76.7236 73.1639 77.3436C74.8739 78.1836 76.4939 79.2536 78.0839 80.3136C96.9339 92.9536 115.784 105.614 134.614 118.294C136.064 119.274 137.544 120.284 138.794 121.494C143.204 125.764 143.194 130.664 138.814 134.904C137.784 135.894 136.604 136.754 135.414 137.544C115.554 150.704 95.6938 163.834 75.8139 176.964C74.6239 177.754 73.3738 178.524 72.0538 179.054C67.8538 180.724 64.3439 179.144 63.0239 174.754C62.3439 172.494 62.0738 170.044 62.0538 167.674C61.9638 154.404 62.0139 141.134 62.0139 127.864V127.844Z" fill="white"/>
</svg>
